<?xml version="1.0" encoding="UTF-8"?>
<svg xmlns="http://www.w3.org/2000/svg" xmlns:xlink="http://www.w3.org/1999/xlink" width="375pt" height="374.999991pt" viewBox="0 0 375 374.999991" version="1.2">
<defs>
<clipPath id="clip1">
  <path d="M 64.539062 90.921875 L 310.539062 90.921875 L 310.539062 284.421875 L 64.539062 284.421875 Z M 64.539062 90.921875 "/>
</clipPath>
</defs>
<g id="surface1">
<rect x="0" y="0" width="375" height="374.999991" style="fill:rgb(100%,100%,100%);fill-opacity:1;stroke:none;"/>
<rect x="0" y="0" width="375" height="374.999991" style="fill:rgb(100%,100%,100%);fill-opacity:1;stroke:none;"/>
<rect x="0" y="0" width="375" height="374.999991" style="fill:rgb(9.01947%,24.708557%,61.178589%);fill-opacity:1;stroke:none;"/>
<g clip-path="url(#clip1)" clip-rule="nonzero">
<path style=" stroke:none;fill-rule:evenodd;fill:rgb(100%,100%,100%);fill-opacity:1;" d="M 275.890625 108.511719 L 99.191406 108.511719 L 182.183594 172.449219 C 185.339844 174.882812 189.738281 174.882812 192.894531 172.449219 Z M 82.152344 117.578125 L 82.152344 266.828125 L 292.929688 266.828125 L 292.929688 117.578125 L 203.605469 186.390625 C 194.132812 193.6875 180.945312 193.6875 171.476562 186.390625 Z M 64.585938 108.511719 C 64.585938 98.796875 72.449219 90.921875 82.152344 90.921875 L 292.929688 90.921875 C 302.628906 90.921875 310.492188 98.796875 310.492188 108.511719 L 310.492188 266.828125 C 310.492188 276.546875 302.628906 284.421875 292.929688 284.421875 L 82.152344 284.421875 C 72.449219 284.421875 64.585938 276.546875 64.585938 266.828125 Z M 64.585938 108.511719 "/>
</g>
</g>
</svg>
